<?xml version="1.0" encoding="utf-8"?>
<svg xml:space="preserve" style="height: 100%; width: 100%; background: none; shape-rendering: auto;" viewBox="0 0 128 128" y="0px" x="0px" xmlns:xlink="http://www.w3.org/1999/xlink" xmlns="http://www.w3.org/2000/svg" id="圖層_1" version="1.1" width="47px" height="47px"><g class="ldl-scale" style="transform-origin: 50% 50%; transform: rotate(0deg) scale(0.8, 0.8);"><g class="ldl-ani"><style type="text/css">.st0{fill:none}.st1,.st2{stroke-width:3}.st1{stroke:#000;stroke-linecap:round;stroke-linejoin:round;stroke-miterlimit:10;fill:#fce9f2}.st2{fill:#fff}.st2,.st3,.st4,.st5,.st6,.st7{stroke:#000;stroke-linecap:round;stroke-linejoin:round;stroke-miterlimit:10}.st3{fill:#ef66b2;stroke-width:3}.st4{stroke-width:.25}.st5{fill:none}.st5,.st6,.st7{stroke-width:3}.st6{fill:#d3edf9}.st7{fill:#f8eaa3}</style><g class="ldl-layer"><g class="ldl-ani" style="transform-origin: 64px 64px; transform: scale(0.91); animation: 1.11111s linear -0.576923s infinite normal forwards running breath-896a0600-4d3e-42fc-8d6a-c3d8ed2a2317;"><path d="z" class="st0"></path></g></g><g class="ldl-layer"><g class="ldl-ani"><g><g class="ldl-layer"><g class="ldl-ani" style="transform-origin: 64px 64px; transform: scale(0.91); animation: 1.11111s linear -0.598291s infinite normal forwards running breath-896a0600-4d3e-42fc-8d6a-c3d8ed2a2317;"><path d="M62.6,95.9c0-10.3-10-18.7-22.4-18.7c-9.3,0-17.4,4.8-20.7,11.5h-2.3c-1.7,0-3,1.3-3,3v7.5c0,1.7,1.4,3,3,3h2 c1.4,3.2,3.8,6,6.9,8.1l-1.5,5.4l10.2,2.7l1.4-5.1c1,0.5,2.4,1,4.1,1.2c3.3,0.4,5.9-0.4,7.1-1l1.3,4.8l10.2-2.7l-2-7.4 C60.4,105.1,62.6,100.7,62.6,95.9z" class="st1" style="fill: rgb(252, 233, 242); stroke: rgb(0, 0, 0);"></path></g></g><g class="ldl-layer"><g class="ldl-ani" style="transform-origin: 64px 64px; transform: scale(0.91); animation: 1.11111s linear -0.619658s infinite normal forwards running breath-896a0600-4d3e-42fc-8d6a-c3d8ed2a2317;"><path d="M46.5,84.7c-2-1.1-4-1.6-6.1-1.3c-0.4,0.1-0.8,0.1-1.2,0.2" class="st2" style="fill: rgb(255, 255, 255); stroke: rgb(0, 0, 0);"></path></g></g><g class="ldl-layer"><g class="ldl-ani" style="transform-origin: 64px 64px; transform: scale(0.91); animation: 1.11111s linear -0.641026s infinite normal forwards running breath-896a0600-4d3e-42fc-8d6a-c3d8ed2a2317;"><path d="M30.8,75.4c-2.7-2.2-6.6-1.8-8.8,0.9l9.7,7.9C33.9,81.5,33.5,77.6,30.8,75.4z" class="st3" style="fill: rgb(239, 102, 178); stroke: rgb(0, 0, 0);"></path></g></g><g class="ldl-layer"><g class="ldl-ani" style="transform-origin: 64px 64px; transform: scale(0.91); animation: 1.11111s linear -0.662393s infinite normal forwards running breath-896a0600-4d3e-42fc-8d6a-c3d8ed2a2317;"><circle r="2.2" cy="90.2" cx="27.8" class="st4" style="fill: rgb(0, 0, 0); stroke: rgb(0, 0, 0);"></circle></g></g><g class="ldl-layer"><g class="ldl-ani" style="transform-origin: 64px 64px; transform: scale(0.91); animation: 1.11111s linear -0.683761s infinite normal forwards running breath-896a0600-4d3e-42fc-8d6a-c3d8ed2a2317;"><path d="M62.9,95.4c1.2-2.1,3.5-3.4,5.8-4.1c1.2-0.4,2.8-0.6,3.7,0.3c0.8,0.7,0.9,2,0.5,3c-0.4,1-1.2,2-2.3,2.1 c-1,0.1-2-0.5-2.5-1.4c-0.5-0.8-0.6-1.9-0.4-2.9c0.4-2,2.1-3.8,4.1-4.3c0.6-0.2,1.4-0.2,2,0.1" class="st5" style="stroke: rgb(0, 0, 0);"></path></g></g></g></g></g><g class="ldl-layer"><g class="ldl-ani"><g><g class="ldl-layer"><g class="ldl-ani" style="transform-origin: 64px 64px; transform: scale(0.91); animation: 1.11111s linear -0.705128s infinite normal forwards running breath-896a0600-4d3e-42fc-8d6a-c3d8ed2a2317;"><path d="M118.4,46.7c0-4.6-1.7-8.8-4.5-12c0.3-0.9,0.4-1.9,0.4-2.9c0-5.9-4.8-10.7-10.7-10.7l0,0c-0.2,0-0.3,0-0.5,0 c-2.5-4-6.1-7.2-10.4-9.2c-10.3-4.9-22.3-2-29.4,6.2c-1.5-0.8-3.1-1.2-4.8-1.2c-5.5,0-10,4.3-10.3,9.7c-8.1,2.2-14.1,9.6-14.1,18.4 c0,9.1,6.4,16.8,15,18.6c1.2,10,9.8,17.8,20.1,17.8c5.8,0,11-2.4,14.7-6.3c3.4,3.5,8.1,5.5,13,5.5c10,0,18.2-8.1,18.2-18.2 c0-1.6-0.2-3.1-0.6-4.5C117,54.8,118.4,50.8,118.4,46.7z" class="st6" style="fill: rgb(211, 237, 249); stroke: rgb(0, 0, 0);"></path></g></g><g class="ldl-layer"><g class="ldl-ani"><g><g class="ldl-layer"><g class="ldl-ani" style="transform-origin: 64px 64px; transform: scale(0.91); animation: 1.11111s linear -0.726496s infinite normal forwards running breath-896a0600-4d3e-42fc-8d6a-c3d8ed2a2317;"><ellipse ry="3.7" rx="3.9" cy="68" cx="13.5" class="st6" style="fill: rgb(211, 237, 249); stroke: rgb(0, 0, 0);"></ellipse></g></g><g class="ldl-layer"><g class="ldl-ani" style="transform-origin: 64px 64px; transform: scale(0.91); animation: 1.11111s linear -0.747863s infinite normal forwards running breath-896a0600-4d3e-42fc-8d6a-c3d8ed2a2317;"><path d="M24.3,51.2c1.9,1.8,1.9,4.8,0,6.6c-1.9,1.8-5,1.8-6.9,0s-1.9-4.8,0-6.6S22.4,49.3,24.3,51.2z" class="st6" style="fill: rgb(211, 237, 249); stroke: rgb(0, 0, 0);"></path></g></g></g></g></g><g class="ldl-layer"><g class="ldl-ani"><g><g class="ldl-layer"><g class="ldl-ani" style="transform-origin: 64px 64px; transform: scale(0.91); animation: 1.11111s linear -0.769231s infinite normal forwards running breath-896a0600-4d3e-42fc-8d6a-c3d8ed2a2317;"><circle r="12.2" cy="36.2" cx="82.2" class="st7" style="fill: rgb(248, 234, 163); stroke: rgb(0, 0, 0);"></circle></g></g><g class="ldl-layer"><g class="ldl-ani"><g><g class="ldl-layer"><g class="ldl-ani" style="transform-origin: 64px 64px; transform: scale(0.91); animation: 1.11111s linear -0.790598s infinite normal forwards running breath-896a0600-4d3e-42fc-8d6a-c3d8ed2a2317;"><path d="M78,39.8c0.3,1.5,2.1,2.7,4.2,2.7c2.3,0,4.2-1.4,4.2-3.1s-1.9-3.1-4.2-3.1c-2.3,0-4.2-1.4-4.2-3.1 c0-1.7,1.9-3.1,4.2-3.1c2.3,0,4.2,1.4,4.2,3.1" class="st5" style="stroke: rgb(0, 0, 0);"></path></g></g><g class="ldl-layer"><g class="ldl-ani" style="transform-origin: 64px 64px; transform: scale(0.91); animation: 1.11111s linear -0.811966s infinite normal forwards running breath-896a0600-4d3e-42fc-8d6a-c3d8ed2a2317;"><path d="M82.3,42.4v2.8" class="st5" style="stroke: rgb(0, 0, 0);"></path></g></g><g class="ldl-layer"><g class="ldl-ani" style="transform-origin: 64px 64px; transform: scale(0.91); animation: 1.11111s linear -0.833333s infinite normal forwards running breath-896a0600-4d3e-42fc-8d6a-c3d8ed2a2317;"><path d="M82.3,27.2v2.6" class="st5" style="stroke: rgb(0, 0, 0);"></path></g></g></g></g></g></g></g></g><g class="ldl-layer"><g class="ldl-ani"><g><g class="ldl-layer"><g class="ldl-ani" style="transform-origin: 64px 64px; transform: scale(0.91); animation: 1.11111s linear -0.854701s infinite normal forwards running breath-896a0600-4d3e-42fc-8d6a-c3d8ed2a2317;"><circle r="12.2" cy="52.4" cx="97.1" class="st7" style="fill: rgb(248, 234, 163); stroke: rgb(0, 0, 0);"></circle></g></g><g class="ldl-layer"><g class="ldl-ani"><g><g class="ldl-layer"><g class="ldl-ani" style="transform-origin: 64px 64px; transform: scale(0.91); animation: 1.11111s linear -0.876068s infinite normal forwards running breath-896a0600-4d3e-42fc-8d6a-c3d8ed2a2317;"><path d="M92.9,55.9c0.3,1.5,2.1,2.7,4.2,2.7c2.3,0,4.2-1.4,4.2-3.1c0-1.7-1.9-3.1-4.2-3.1c-2.3,0-4.2-1.4-4.2-3.1 c0-1.7,1.9-3.1,4.2-3.1c2.3,0,4.2,1.4,4.2,3.1" class="st5" style="stroke: rgb(0, 0, 0);"></path></g></g><g class="ldl-layer"><g class="ldl-ani" style="transform-origin: 64px 64px; transform: scale(0.91); animation: 1.11111s linear -0.897436s infinite normal forwards running breath-896a0600-4d3e-42fc-8d6a-c3d8ed2a2317;"><path d="M97.2,58.6v2.8" class="st5" style="stroke: rgb(0, 0, 0);"></path></g></g><g class="ldl-layer"><g class="ldl-ani" style="transform-origin: 64px 64px; transform: scale(0.91); animation: 1.11111s linear -0.918803s infinite normal forwards running breath-896a0600-4d3e-42fc-8d6a-c3d8ed2a2317;"><path d="M97.2,43.4V46" class="st5" style="stroke: rgb(0, 0, 0);"></path></g></g></g></g></g></g></g></g><g class="ldl-layer"><g class="ldl-ani"><g><g class="ldl-layer"><g class="ldl-ani" style="transform-origin: 64px 64px; transform: scale(0.91); animation: 1.11111s linear -0.940171s infinite normal forwards running breath-896a0600-4d3e-42fc-8d6a-c3d8ed2a2317;"><circle r="12.2" cy="43" cx="58.1" class="st7" style="fill: rgb(248, 234, 163); stroke: rgb(0, 0, 0);"></circle></g></g><g class="ldl-layer"><g class="ldl-ani"><g><g class="ldl-layer"><g class="ldl-ani" style="transform-origin: 64px 64px; transform: scale(0.91); animation: 1.11111s linear -0.961538s infinite normal forwards running breath-896a0600-4d3e-42fc-8d6a-c3d8ed2a2317;"><path d="M54.3,47c0.4,1.5,2.3,2.4,4.5,2.2c2.3-0.2,4.1-1.8,3.9-3.5c-0.2-1.7-2.2-2.9-4.5-2.7c-2.3,0.2-4.4-1-4.5-2.7 c-0.2-1.7,1.6-3.3,3.9-3.5c2.3-0.2,4.4,1,4.5,2.7" class="st5" style="stroke: rgb(0, 0, 0);"></path></g></g><g class="ldl-layer"><g class="ldl-ani" style="transform-origin: 64px 64px; transform: scale(0.91); animation: 1.11111s linear -0.982906s infinite normal forwards running breath-896a0600-4d3e-42fc-8d6a-c3d8ed2a2317;"><path d="M58.8,49.2l0.3,2.8" class="st5" style="stroke: rgb(0, 0, 0);"></path></g></g><g class="ldl-layer"><g class="ldl-ani" style="transform-origin: 64px 64px; transform: scale(0.91); animation: 1.11111s linear -1.00427s infinite normal forwards running breath-896a0600-4d3e-42fc-8d6a-c3d8ed2a2317;"><path d="M57.3,34.1l0.3,2.6" class="st5" style="stroke: rgb(0, 0, 0);"></path></g></g></g></g></g></g></g></g><g class="ldl-layer"><g class="ldl-ani"><g><g class="ldl-layer"><g class="ldl-ani" style="transform-origin: 64px 64px; transform: scale(0.91); animation: 1.11111s linear -1.02564s infinite normal forwards running breath-896a0600-4d3e-42fc-8d6a-c3d8ed2a2317;"><circle r="12.2" cy="56.7" cx="74.3" class="st7" style="fill: rgb(248, 234, 163); stroke: rgb(0, 0, 0);"></circle></g></g><g class="ldl-layer"><g class="ldl-ani"><g><g class="ldl-layer"><g class="ldl-ani" style="transform-origin: 64px 64px; transform: scale(0.91); animation: 1.11111s linear -1.04701s infinite normal forwards running breath-896a0600-4d3e-42fc-8d6a-c3d8ed2a2317;"><path d="M70.1,60.2c0.3,1.5,2.1,2.7,4.2,2.7c2.3,0,4.2-1.4,4.2-3.1s-1.9-3.1-4.2-3.1c-2.3,0-4.2-1.4-4.2-3.1 s1.9-3.1,4.2-3.1c2.3,0,4.2,1.4,4.2,3.1" class="st5" style="stroke: rgb(0, 0, 0);"></path></g></g><g class="ldl-layer"><g class="ldl-ani" style="transform-origin: 64px 64px; transform: scale(0.91); animation: 1.11111s linear -1.06838s infinite normal forwards running breath-896a0600-4d3e-42fc-8d6a-c3d8ed2a2317;"><path d="M74.4,62.9v2.8" class="st5" style="stroke: rgb(0, 0, 0);"></path></g></g><g class="ldl-layer"><g class="ldl-ani" style="transform-origin: 64px 64px; transform: scale(0.91); animation: 1.11111s linear -1.08974s infinite normal forwards running breath-896a0600-4d3e-42fc-8d6a-c3d8ed2a2317;"><path d="M74.4,47.7v2.6" class="st5" style="stroke: rgb(0, 0, 0);"></path></g></g></g></g></g></g></g></g></g></g></g><g class="ldl-layer"><g class="ldl-ani" style="transform-origin: 64px 64px; transform: scale(0.91); animation: 1.11111s linear -1.11111s infinite normal forwards running breath-896a0600-4d3e-42fc-8d6a-c3d8ed2a2317;"><path d="z" class="st0"></path></g></g><metadata xmlns:d="https://loading.io/stock/">
<d:name>saving</d:name>
<d:tags>saving,wealth,fortune,dream,blueprint</d:tags>
<d:license>by</d:license>
<d:slug>dwl365</d:slug>
</metadata></g></g><style id="breath-896a0600-4d3e-42fc-8d6a-c3d8ed2a2317" data-anikit="">@keyframes breath-896a0600-4d3e-42fc-8d6a-c3d8ed2a2317
{
  0% {
    animation-timing-function: cubic-bezier(0.9647,0.2413,-0.0705,0.7911);
    transform: scale(0.9099999999999999);
  }
  51% {
    animation-timing-function: cubic-bezier(0.9226,0.2631,-0.0308,0.7628);
    transform: scale(1.02994);
  }
  100% {
    transform: scale(0.9099999999999999);
  }
}</style><!-- [ldio] generated by https://loading.io/ --></svg>