<svg clip-rule="evenodd" fill-rule="evenodd" stroke-miterlimit="10" viewBox="0 0 3508 2481" xmlns="http://www.w3.org/2000/svg"><g fill-rule="nonzero"><path d="m1812.46 2201c-558.042 0-1010.42-452.375-1010.42-1010.42 0-558.041 452.375-1010.42 1010.42-1010.42 558.042 0 1010.42 452.375 1010.42 1010.42 0 558.042-452.375 1010.42-1010.42 1010.42m0-2052.08c-575.292 0-1041.67 466.375-1041.67 1041.67 0 575.288 466.375 1041.67 1041.67 1041.67 575.288 0 1041.67-466.379 1041.67-1041.67s-466.379-1041.67-1041.67-1041.67" fill="#231f20"/><path d="m1812.46 2049.42c-474.333 0-858.833-384.5-858.833-858.833 0-474.334 384.5-858.875 858.833-858.875s858.875 384.541 858.875 858.875c0 474.333-384.541 858.833-858.875 858.833m0-1869.25c-558.042 0-1010.42 452.375-1010.42 1010.42 0 558.041 452.376 1010.42 1010.42 1010.42 558.042 0 1010.42-452.375 1010.42-1010.42 0-558.042-452.375-1010.42-1010.42-1010.42" fill="#00ada8"/><path d="m1812.46 2015.33c-455.5 0-824.75-369.25-824.75-824.746 0-455.504 369.25-824.754 824.75-824.754 455.496 0 824.746 369.25 824.746 824.754 0 455.496-369.25 824.746-824.746 824.746m0-1683.63c-474.333 0-858.833 384.541-858.833 858.879 0 474.329 384.5 858.833 858.833 858.833 474.334 0 858.875-384.504 858.875-858.833 0-474.338-384.541-858.879-858.875-858.879" fill="#231f20"/><path d="m2637.21 1190.59c0 455.496-369.25 824.746-824.746 824.746-455.504 0-824.754-369.25-824.754-824.746 0-455.5 369.25-824.75 824.754-824.75 455.496 0 824.746 369.25 824.746 824.75" fill="#fff"/><path d="m1817.35 1794.94c-333.795 0-604.37-270.575-604.37-604.371s270.575-604.4 604.37-604.4c333.792 0 604.4 270.604 604.4 604.4s-270.608 604.371-604.4 604.371m0-1315.42c-392.704 0-711.041 318.346-711.041 711.046s318.337 711.046 711.041 711.046c392.7 0 711.042-318.346 711.042-711.046s-318.342-711.046-711.042-711.046" fill="#00ada8"/></g><path d="m1817.35 1794.94c-333.795 0-604.37-270.575-604.37-604.371s270.575-604.4 604.37-604.4c333.792 0 604.4 270.604 604.4 604.4s-270.608 604.371-604.4 604.371zm0-1315.42c-392.704 0-711.041 318.346-711.041 711.046s318.337 711.046 711.041 711.046c392.7 0 711.042-318.346 711.042-711.046s-318.342-711.046-711.042-711.046z" fill="none" stroke="#00ada8" stroke-width="16.67"/><path d="m1817.35 1759.51c-314.225 0-568.945-254.725-568.945-568.946 0-314.22 254.72-568.945 568.945-568.945 314.221 0 568.946 254.725 568.946 568.945 0 314.221-254.725 568.946-568.946 568.946m0-1161.43c-327.212 0-592.458 265.271-592.458 592.487 0 327.213 265.246 592.459 592.458 592.459 327.213 0 592.484-265.246 592.484-592.459 0-327.216-265.271-592.487-592.484-592.487" fill="#231f20" fill-rule="nonzero"/><path d="m1817.35 1759.51c-314.225 0-568.945-254.725-568.945-568.946 0-314.22 254.72-568.945 568.945-568.945 314.221 0 568.946 254.725 568.946 568.945 0 314.221-254.725 568.946-568.946 568.946zm0-1161.43c-327.212 0-592.458 265.271-592.458 592.487 0 327.213 265.246 592.459 592.458 592.459 327.213 0 592.484-265.246 592.484-592.459 0-327.216-265.271-592.487-592.484-592.487z" fill="none" stroke="#231f20" stroke-width="12.5"/><path d="m2386.3 1190.56c0 314.225-254.725 568.946-568.945 568.946-314.221 0-568.946-254.721-568.946-568.946 0-314.221 254.725-568.946 568.946-568.946 314.22 0 568.945 254.725 568.945 568.946" fill="#fff" fill-rule="nonzero"/><path d="m2386.3 1190.56c0-314.01-254.936-568.946-568.945-568.946-314.01 0-568.946 254.936-568.946 568.946s254.936 568.946 568.946 568.946c314.009 0 568.945-254.936 568.945-568.946z" fill="none" stroke="#231f20" stroke-width="12.5"/><path d="m2271.22 1099.56s-.438 95.746-64.442 165.817c-2.533 2.792-5.158 5.467-5.158 5.467s-.763.779-1.558 1.574c-2.15 2.167-112.005 111.717-384.434 383.4-271.866-271.666-381.475-381.183-383.621-383.345-.812-.8-1.575-1.575-1.575-1.575-1.287-1.321-3.079-3.2-5.141-5.467-62.75-68.688-64.409-158.104-64.442-165.821-.337-79.008 37.975-133.462 51.646-152.312 12.879-17.771 46.283-62.563 109.4-88.4 68.925-28.213 130.692-16.384 154.058-10.513 0 0 74.917 18.854 140.046 91.042l.054-.05c65.163-72.204 140.063-91.038 140.063-91.038 23.35-5.875 85.116-17.704 154.041 10.509 63.134 25.837 96.521 70.629 109.413 88.395 13.696 18.888 52.004 73.309 51.65 152.317z" fill="#ee287c" fill-rule="nonzero" stroke="#231f20" stroke-width="37.5"/><path d="m1857.35 1201.67h739.291" fill="none" stroke="#231f20" stroke-linecap="round" stroke-width="41.67"/><path d="m1817.35 1901.61c-392.704 0-711.041-318.341-711.041-711.046 0-392.7 318.337-711.041 711.041-711.041 392.7 0 711.042 318.341 711.042 711.041 0 392.705-318.342 711.046-711.042 711.046m0-1444.08c-404.841 0-733.033 328.196-733.033 733.033 0 404.842 328.192 733.034 733.033 733.034 404.838 0 733.034-328.192 733.034-733.034 0-404.837-328.196-733.033-733.034-733.033" fill="#231f20" fill-rule="nonzero"/><path d="m1817.35 1901.61c-392.704 0-711.041-318.341-711.041-711.046 0-392.7 318.337-711.041 711.041-711.041 392.7 0 711.042 318.341 711.042 711.041 0 392.705-318.342 711.046-711.042 711.046zm0-1444.08c-404.841 0-733.033 328.196-733.033 733.033 0 404.842 328.192 733.034 733.033 733.034 404.838 0 733.034-328.192 733.034-733.034 0-404.837-328.196-733.033-733.034-733.033z" fill="none" stroke="#231f20" stroke-width="12.5"/><path d="m2565.44 1067s28.329.129 49.062 19.067c.83.75 1.617 1.525 1.617 1.525s.233.229.463.462c.645.638 33.058 33.138 113.441 113.742-80.379 80.437-112.779 112.866-113.425 113.504-.233.237-.462.467-.462.467-.392.379-.95.912-1.621 1.52-20.321 18.563-46.775 19.059-49.058 19.067-23.375.1-39.492-11.237-45.067-15.279-5.254-3.813-18.508-13.696-26.154-32.371-8.346-20.396-4.846-38.667-3.109-45.579 0 0 5.575-22.167 26.934-41.438l-.013-.016c-21.366-19.279-26.937-41.442-26.937-41.442-1.738-6.908-5.238-25.183 3.108-45.575 7.646-18.679 20.9-28.558 26.158-32.375 5.584-4.05 21.688-15.383 45.063-15.279z" fill="#ee287c" fill-rule="nonzero" stroke="#231f20" stroke-width="29.17"/></svg>