<svg height="705.6377" viewBox="0 0 790.85551 705.6377" width="790.85551" xmlns="http://www.w3.org/2000/svg"><g transform="translate(-204.57225 -97.18115)"><path d="m375.53652 314.45654a8 8 0 0 0 0 16h100.56006v-3.49a14.97671 14.97671 0 0 1 6.73974-12.51z" fill="#e6e6e6"/><path d="m467.04134 296.45654h-34a8 8 0 1 1 0-16h34a8 8 0 0 1 0 16z" fill="#e6e6e6"/><path d="m390.78585 239.45654h-132a8 8 0 1 1 0-16h132a8 8 0 0 1 0 16z" fill="#e6e6e6"/><path d="m333.28585 205.45654h-17a8 8 0 1 1 0-16h17a8 8 0 0 1 0 16z" fill="#e6e6e6"/><path d="m475.09243 475.35107h-124.438a17.01916 17.01916 0 0 1 -17-17v-196.83984a17.01917 17.01917 0 0 1 17-17h198.77369a17.01917 17.01917 0 0 1 17 17v48.7876h-2v-48.7876a15.017 15.017 0 0 0 -15-15h-198.77368a15.017 15.017 0 0 0 -15 15v196.83984a15.017 15.017 0 0 0 15 15h124.438z" fill="#ccc"/><path d="m334.65444 357.51514h-90.70935a17.01917 17.01917 0 0 1 -17-17v-160.0586a17.01917 17.01917 0 0 1 17-17h161.68139a17.01917 17.01917 0 0 1 17 17v65.05469h-2v-65.05469a15.017 15.017 0 0 0 -15-15h-161.68139a15.017 15.017 0 0 0 -15 15v160.0586a15.017 15.017 0 0 0 15 15h90.70935z" fill="#ccc"/><path d="m739.53652 314.45654a14.97671 14.97671 0 0 1 6.73974 12.51v3.49h100.56006a8 8 0 0 0 0-16z" fill="#e6e6e6"/><path d="m747.3315 288.45654a8.00917 8.00917 0 0 1 8-8h34a8 8 0 1 1 0 16h-34a8.00916 8.00916 0 0 1 -8-8z" fill="#e6e6e6"/><path d="m823.587 231.45654a8.00917 8.00917 0 0 1 8-8h132a8 8 0 1 1 0 16h-132a8.00916 8.00916 0 0 1 -8-8z" fill="#e6e6e6"/><path d="m881.087 197.45654a8.00917 8.00917 0 0 1 8-8h17a8 8 0 1 1 0 16h-17a8.00916 8.00916 0 0 1 -8-8z" fill="#e6e6e6"/><path d="m747.28041 475.35107h124.438a17.01916 17.01916 0 0 0 17-17v-196.83984a17.01917 17.01917 0 0 0 -17-17h-198.77369a17.01917 17.01917 0 0 0 -17 17v48.7876h2v-48.7876a15.017 15.017 0 0 1 15-15h198.77368a15.017 15.017 0 0 1 15 15v196.83984a15.017 15.017 0 0 1 -15 15h-124.438z" fill="#ccc"/><path d="m887.7184 357.51514h90.70935a17.01917 17.01917 0 0 0 17-17v-160.0586a17.01917 17.01917 0 0 0 -17-17h-161.68139a17.01917 17.01917 0 0 0 -17 17v65.05469h2v-65.05469a15.017 15.017 0 0 1 15-15h161.68139a15.017 15.017 0 0 1 15 15v160.0586a15.017 15.017 0 0 1 -15 15h-90.70935z" fill="#ccc"/><path d="m730.85634 309.96655h-239.75976a17.03389 17.03389 0 0 0 -17 17v237.49a17.01782 17.01782 0 0 0 17 17h239.75976a17.01783 17.01783 0 0 0 17-17v-237.49a17.01784 17.01784 0 0 0 -17-17zm15 254.49a15.01828 15.01828 0 0 1 -15 15h-239.75976a15.01828 15.01828 0 0 1 -15-15v-237.49a15.02322 15.02322 0 0 1 15-15h239.75976a15.01828 15.01828 0 0 1 15 15z" fill="#3f3d56"/><path d="m711.97561 402.45654h-202a8 8 0 1 1 0-16h202a8 8 0 0 1 0 16z" fill="#ccc"/><path d="m654.47561 368.45654h-87a8 8 0 1 1 0-16h87a8 8 0 0 1 0 16z" fill="#ee2a7b"/><path d="m596.47561 450.45654h-87a8 8 0 1 1 0-16h87a8 8 0 0 1 0 16z" fill="#ccc"/><path d="m596.47561 485.45654h-87a8 8 0 1 1 0-16h87a8 8 0 0 1 0 16z" fill="#ccc"/><path d="m596.47561 520.45654h-87a8 8 0 1 1 0-16h87a8 8 0 0 1 0 16z" fill="#ccc"/></g><circle cx="500.40945" cy="345.20452" fill="#ee2a7b" r="14.92913"/><path d="m703.5023 448.0807a1.54842 1.54842 0 0 1 -.93151-.30958l-.01666-.0125-3.50855-2.68392a1.55917 1.55917 0 0 1 1.89726-2.47477l2.27256 1.7427 5.37016-7.006a1.55853 1.55853 0 0 1 2.18512-.28862l.00045.00034-.03333.04628.03423-.04628a1.56039 1.56039 0 0 1 .28829 2.18555l-6.31649 8.23688a1.55948 1.55948 0 0 1 -1.24016.608z" fill="#fff" transform="translate(-204.57225 -97.18115)"/><path d="m324.78579 143.59033a23.20459 23.20459 0 1 1 23.20471-23.20459 23.231 23.231 0 0 1 -23.20471 23.20459zm0-44.40918a21.20459 21.20459 0 1 0 21.20471 21.20459 21.22862 21.22862 0 0 0 -21.20471-21.20459z" fill="#ccc" transform="translate(-204.57225 -97.18115)"/><path d="m322.58542 128.85612a2.303 2.303 0 0 1 -1.38548-.46045l-.02478-.01859-5.21841-3.99191a2.319 2.319 0 1 1 2.82188-3.68082l3.38007 2.592 7.98727-10.42029a2.318 2.318 0 0 1 3.25-.42928l.00067.00051-.04957.06883.05091-.06883a2.32082 2.32082 0 0 1 .42878 3.25065l-9.39476 12.25106a2.31945 2.31945 0 0 1 -1.84454.90437z" fill="#ccc" transform="translate(-204.57225 -97.18115)"/><path d="m471.98159 224.59033a23.20459 23.20459 0 1 1 23.20483-23.20459 23.23088 23.23088 0 0 1 -23.20483 23.20459zm0-44.40918a21.20459 21.20459 0 1 0 21.20483 21.20459 21.22859 21.22859 0 0 0 -21.20483-21.20459z" fill="#ccc" transform="translate(-204.57225 -97.18115)"/><path d="m469.78133 209.85612a2.303 2.303 0 0 1 -1.38548-.46045l-.02478-.01859-5.21841-3.99191a2.319 2.319 0 1 1 2.82188-3.68082l3.38007 2.592 7.98727-10.42029a2.318 2.318 0 0 1 3.25-.42928l.00067.00051-.04957.06883.05091-.06883a2.32082 2.32082 0 0 1 .42878 3.25065l-9.39477 12.25106a2.31945 2.31945 0 0 1 -1.84454.90437z" fill="#ccc" transform="translate(-204.57225 -97.18115)"/><circle cx="500.40945" cy="380.20452" fill="#ee2a7b" r="14.92913"/><path d="m703.5023 483.0807a1.54842 1.54842 0 0 1 -.93151-.30958l-.01666-.0125-3.50855-2.68392a1.55917 1.55917 0 0 1 1.89726-2.47477l2.27256 1.7427 5.37016-7.006a1.55853 1.55853 0 0 1 2.18512-.28862l.00045.00034-.03333.04628.03423-.04628a1.56039 1.56039 0 0 1 .28829 2.18555l-6.31649 8.23688a1.55948 1.55948 0 0 1 -1.24016.608z" fill="#fff" transform="translate(-204.57225 -97.18115)"/><circle cx="500.40945" cy="415.27539" fill="#ee2a7b" r="14.92913"/><path d="m703.5023 518.15157a1.54842 1.54842 0 0 1 -.93151-.30958l-.01666-.0125-3.50855-2.68393a1.55917 1.55917 0 0 1 1.89726-2.47476l2.27256 1.7427 5.37016-7.006a1.55852 1.55852 0 0 1 2.18512-.28862l.00045.00033-.03333.04628.03423-.04628a1.56039 1.56039 0 0 1 .28829 2.18555l-6.31649 8.23689a1.55948 1.55948 0 0 1 -1.24016.60805z" fill="#fff" transform="translate(-204.57225 -97.18115)"/><path d="m610.9977 289.59033c-15.74927-.26855-22.90625-12.21777-22.90552-23.20654.001-10.98877 7.15869-22.93652 22.87256-23.20264h.03394c15.71582.26807 22.873 12.21729 22.87231 23.20606s-7.15894 22.93701-22.87329 23.20312zm-.01587-44.40918c-14.352.251-20.88892 11.165-20.88965 21.20264-.00073 10.042 6.541 20.96142 20.90576 21.20654 14.32959-.24316 20.87232-11.16162 20.87305-21.20312.00049-10.0376-6.53711-20.95166-20.88916-21.20606z" fill="#ee2a7b" transform="translate(-204.57225 -97.18115)"/><path d="m616.1897 267.64593c4.0141 6.97343-7.00451 9.69688-11.22 5.49609l1.05591-2.25634c6.85387 5.92038 12.89281-4.33445 2.42407-3.35987v-2.47216c9.58671.77313 4.20182-8.87658-2.18408-3.168l-1.032-2.25586c5.20456-5.40159 16.88873 1.1299 8.64014 6.52783a4.11165 4.11165 0 0 1 2.31596 1.48831z" fill="#ee2a7b" transform="translate(-204.57225 -97.18115)"/><path d="m751.98159 224.59033a23.20459 23.20459 0 1 1 23.20483-23.20459 23.23088 23.23088 0 0 1 -23.20483 23.20459zm0-44.40918a21.20459 21.20459 0 1 0 21.20483 21.20459 21.22859 21.22859 0 0 0 -21.20483-21.20459z" fill="#ccc" transform="translate(-204.57225 -97.18115)"/><path d="m758.42567 206.59368h-2.42408v3.33594h-3.02392v-3.33594h-7.43994v-2.30419l7.99194-11.44776h2.47192v11.32813h2.42408zm-5.448-2.42382v-6.5044l-4.512 6.5044z" fill="#ccc" transform="translate(-204.57225 -97.18115)"/><path d="m897.58705 143.59033a23.20459 23.20459 0 1 1 23.20484-23.20459 23.23109 23.23109 0 0 1 -23.20484 23.20459zm0-44.40918a21.20459 21.20459 0 1 0 21.20484 21.20459 21.22864 21.22864 0 0 0 -21.20484-21.20459z" fill="#ccc" transform="translate(-204.57225 -97.18115)"/><path d="m901.04311 118.59784a4.76509 4.76509 0 0 1 1.896 1.91992 5.8622 5.8622 0 0 1 .67187 2.84375 5.66338 5.66338 0 0 1 -.76807 2.96435 5.14271 5.14271 0 0 1 -2.208 1.9917 7.46881 7.46881 0 0 1 -3.33594.708 9.61289 9.61289 0 0 1 -3.168-.54 7.35773 7.35773 0 0 1 -2.56787-1.45166l1.032-2.25635a7.77012 7.77012 0 0 0 4.752 1.77637 3.45143 3.45143 0 0 0 2.46-.8042 3.44028 3.44028 0 0 0 -.02393-4.56006 3.21412 3.21412 0 0 0 -2.34009-.852 4.8557 4.8557 0 0 0 -1.896.37207 4.48207 4.48207 0 0 0 -1.56006 1.0918h-1.87183v-10.05575h10.70381v2.39991h-7.67993v4.65576a5.30553 5.30553 0 0 1 3.072-.8877 5.70865 5.70865 0 0 1 2.83204.68409z" fill="#ccc" transform="translate(-204.57225 -97.18115)"/><path d="m352.76658 618.03129a10.05576 10.05576 0 0 1 6.68-13.89722l3.03148-35.606 14.57923 11.50129-5.1139 32.04882a10.11027 10.11027 0 0 1 -19.17685 5.95314z" fill="#ffb8b8" transform="translate(-204.57225 -97.18115)"/><path d="m362.143 600.39705a4.49721 4.49721 0 0 1 -3.90353-4.27067l-1.68789-40.40688a89.09911 89.09911 0 0 1 8.60967-42.09305l14.96788-31.36456a13.43048 13.43048 0 0 1 10.08711-7.0092 12.88057 12.88057 0 0 1 11.23477 3.98922 16.88976 16.88976 0 0 1 1.9231 2.48163 12.92189 12.92189 0 0 1 .68213 12.30411l-22.95137 62.69962-1.7658 40.84776a4.50058 4.50058 0 0 1 -5.02847 4.274l-12.10806-1.44407z" fill="#ee2a7b" transform="translate(-204.57225 -97.18115)"/><path d="m114.63 679.762 11.226 4.928 24.348-40.956-16.568-7.272z" fill="#ffb8b8"/><path d="m317.94754 772.02123 22.10781 9.704.0009.00039a15.38605 15.38605 0 0 1 7.904 20.27329l-.201.45782-36.197-15.88844z" fill="#2f2e41" transform="translate(-204.57225 -97.18115)"/><path d="m265.342 693.391h12.26l5.832-47.288-18.094.001z" fill="#ffb8b8"/><path d="m466.78716 786.57 24.1438-.001h.001a15.38605 15.38605 0 0 1 15.38648 15.38623v.5l-39.53052.00146z" fill="#2f2e41" transform="translate(-204.57225 -97.18115)"/><path d="m346.43225 777.12817a4.52688 4.52688 0 0 1 -1.38868-.21972l-20.78757-6.68164a4.51916 4.51916 0 0 1 -2.92652-5.59961l68.9353-219.51563 51.63477-10.125.18164.2959c34.13672 55.54785 45.53174 140.40137 52.76025 230.30762a4.526 4.526 0 0 1 -4.04 4.84179l-22.72608 2.27247a4.47392 4.47392 0 0 1 -4.79028-3.29786l-41.61182-147.207a1.50024 1.50024 0 0 0 -2.82519-.20019l-68.29522 152.40719a4.48315 4.48315 0 0 1 -4.1206 2.72168z" fill="#2f2e41" transform="translate(-204.57225 -97.18115)"/><circle cx="212.3703" cy="335.46934" fill="#ffb8b8" r="24.56103"/><path d="m385.87243 551.61157-.16843-.35157c-.11425-.23926-11.43017-24.24512-10.37719-51.93457a35.6575 35.6575 0 0 1 34.9082-34.2832 35.59915 35.59915 0 0 1 35.64136 28.79882c3.15356 16.09864 3.0747 31.34668-.23462 45.31836l-.07373.31055-.31324.06445z" fill="#ee2a7b" transform="translate(-204.57225 -97.18115)"/><path d="m511.09616 586.26057a10.05579 10.05579 0 0 1 -8.06448-13.1423l-28.28968-21.83287 17.56457-6.02657 24.1715 21.65681a10.11027 10.11027 0 0 1 -5.38193 19.34493z" fill="#ffb8b8" transform="translate(-204.57225 -97.18115)"/><path d="m441.67292 538.12873-.0654-.10563-29.82327-48.29827a13.42932 13.42932 0 0 1 -.429-12.27495 12.87649 12.87649 0 0 1 9.43853-7.28423 16.85435 16.85435 0 0 1 3.12653-.27252 12.92087 12.92087 0 0 1 10.71335 6.09016l40.27682 53.253 33.38133 23.60723a4.49959 4.49959 0 0 1 .86955 6.54188l-7.77148 9.39628a4.48311 4.48311 0 0 1 -5.74532 1.01332z" fill="#ee2a7b" transform="translate(-204.57225 -97.18115)"/><path d="m412.55028 431.12649c1.81023-2.97777 5.805-3.819 9.27322-3.47935s6.841 1.55875 10.32574 1.53174c9.67615-.075 17.14516-11.8682 13.077-20.64791-3.33632-7.2003-11.66886-10.362-19.2066-12.84345-15.80415-5.20283-33.95835-10.20184-48.29972-1.76586a30.01039 30.01039 0 0 0 -14.44477 26.741c.32255 6.63919 2.86521 13.45884.71479 19.7484-2.48082 7.25593-10.34666 11.14893-17.78013 13.03212-13.03063 3.30118-26.7696 2.76942-39.88173 5.73032s-26.54852 10.82279-30.083 23.79209c-2.32156 8.51874.10094 17.68937 4.11272 25.55475a66.18546 66.18546 0 0 0 92.33286 27.08266c15.85168-9.25607 27.296-24.89963 34.11893-41.94069a140.43809 140.43809 0 0 0 8.1175-30.84631c1.52807-9.88241.23148-19.86929-2.53628-29.47849a2.70887 2.70887 0 0 1 .15947-2.21102z" fill="#2f2e41" transform="translate(-204.57225 -97.18115)"/><path d="m586.57225 802.81885h-381a1 1 0 0 1 0-2h381a1 1 0 0 1 0 2z" fill="#3f3d56" transform="translate(-204.57225 -97.18115)"/></svg>